<svg xmlns:dc="http://purl.org/dc/elements/1.1/" xmlns:cc="http://creativecommons.org/ns#" xmlns:rdf="http://www.w3.org/1999/02/22-rdf-syntax-ns#" xmlns:svg="http://www.w3.org/2000/svg" xmlns="http://www.w3.org/2000/svg" xmlns:sodipodi="http://sodipodi.sourceforge.net/DTD/sodipodi-0.dtd" xmlns:inkscape="http://www.inkscape.org/namespaces/inkscape" width="245" height="245" viewBox="0 0 64 64" version="1.1" id="svg14022" inkscape:version="0.92.3 (2405546, 2018-03-11)" sodipodi:docname="guacamole.svg">
  <g inkscape:label="Layer 1" inkscape:groupmode="layer" id="layer1" transform="translate(120.43226,-119.22305)">
    <g id="g14596" transform="matrix(0.38281094,0,0,0.38281094,-118.11974,92.92045)">
      <g transform="translate(99.02976,-22.678571)" id="g14578">
        <path id="path14580" d="m -25.173215,260.45414 c -4.930886,-0.38884 -11.129864,-1.39499 -15.742708,-2.55518 -24.037879,-6.04586 -44.142793,-22.26302 -55.029526,-44.38829 -4.292281,-8.72327 -6.806681,-16.77865 -7.935981,-25.4245 -0.22809,-1.74625 -0.55142,-3.77032 -0.71851,-4.49792 -0.40471,-1.76235 -0.40471,-13.3189 0,-15.08125 0.16709,-0.72761 0.49042,-2.75167 0.71851,-4.49792 1.1293,-8.64585 3.6437,-16.70123 7.935981,-25.4245 8.189303,-16.64325 21.428444,-29.88239 38.071687,-38.07169 8.72327,-4.292283 16.77865,-6.806681 25.424506,-7.935979 1.74625,-0.22809 3.770312,-0.551419 4.497916,-0.718509 1.76235,-0.404712 13.3189,-0.404712 15.08125,0 0.727604,0.16709 2.751666,0.490419 4.4979164,0.718509 8.64585559,1.129298 16.7012352,3.643696 25.4245056,7.935979 16.643243,8.1893 29.882385,21.42844 38.071688,38.07169 4.292283,8.72327 6.806679,16.77865 7.935979,25.4245 0.228089,1.74625 0.551418,3.77031 0.718508,4.49792 0.182528,0.79483 0.3038,3.8049 0.3038,7.54062 0,3.73573 -0.121272,6.74579 -0.3038,7.54063 -0.16709,0.7276 -0.490419,2.75167 -0.718508,4.49792 -1.1293,8.64585 -3.643696,16.70123 -7.935979,25.4245 -8.189303,16.64324 -21.428445,29.88239 -38.071688,38.07169 -8.7232704,4.29228 -16.77865001,6.80668 -25.4245056,7.93598 -1.7462504,0.22809 -3.7107814,0.52646 -4.3656244,0.66305 -1.645423,0.3432 -9.388454,0.51303 -12.435417,0.27275 z m 10.926358,-30.70276 c 5.2516214,-0.2912 8.6416483,-0.74182 13.150725,-1.74807 15.324865,-3.41989 27.81886,-11.93627 36.073976,-24.58938 2.802887,-4.29615 2.849589,-5.01446 0.190408,-2.92858 -7.997357,6.27318 -21.219282,11.4907 -35.20605073,13.89271 -7.61777737,1.30823 -10.02028427,1.48674 -19.97604127,1.4843 -7.450656,-0.002 -10.311625,-0.10203 -13.137041,-0.46012 -7.026008,-0.89045 -14.902145,-2.57709 -20.729625,-4.43915 -8.821679,-2.81879 -17.850244,-7.43984 -22.530244,-11.53155 -1.494089,-1.30628 -2.208297,-1.70805 -2.208297,-1.24226 0,0.33293 1.893779,3.89872 2.995173,5.63959 10.106885,15.97506 27.524588,24.75872 51.376701,25.90903 2.328333,0.11229 4.471458,0.22 4.7625,0.23937 0.291041,0.0194 2.648058,-0.0823 5.237816,-0.22589 z m 1.64135,-27.5179 c 12.67983603,-0.92535 24.449016,-3.5655 35.586458,-7.98302 8.275674,-3.28243 16.7236,-8.21684 20.189163,-11.79243 1.175824,-1.21315 1.488006,-2.22559 2.43178,-7.88648 0.352785,-2.11605 0.946393,-4.73094 1.319133,-5.81086 0.534263,-1.5479 0.735298,-2.84657 0.949807,-6.13567 0.410056,-6.28752 0.04798,-8.87844 -1.666727,-11.92667 -0.979363,-1.74102 -3.302249,-4.28128 -4.509368,-4.93135 l -0.905563,-0.48768 -1.561925,1.13214 c -2.227273,1.6144 -2.296792,1.7321 -1.706494,2.88918 0.937152,1.83697 1.407758,4.02845 1.395775,6.49974 -0.02154,4.44366 -1.56264,7.6797 -5.616831,11.79438 -15.249258,15.47679 -56.029449,20.81925 -85.70035,11.22729 -13.613656,-4.401 -22.66864,-11.20928 -25.066045,-18.8467 -0.595556,-1.89725 -0.669322,-2.51807 -0.565878,-4.7625 0.146074,-3.16946 0.619967,-4.31602 3.605115,-8.72243 1.162081,-1.71536 2.485128,-4.05681 2.940105,-5.20321 0.454978,-1.14641 1.000567,-2.41958 1.212422,-2.82926 0.606761,-1.17334 0.03957,-1.17707 -2.062758,-0.0136 -4.447127,2.46124 -9.114372,6.1784 -11.577536,9.22079 -3.303306,4.08008 -4.161235,7.11423 -3.850733,13.61848 0.188928,3.95758 0.610957,6.01641 1.580498,7.71029 0.464908,0.81224 0.674484,1.6897 0.800007,3.34951 0.293516,3.88121 0.970707,7.75759 1.509978,8.64342 0.705873,1.15949 4.337612,4.18015 7.505385,6.24251 16.395605,10.67428 41.653973,16.61768 63.764582,15.00409 z m -0.396875,-25.13384 c 12.28619955,-0.75548 23.233748,-3.25614 31.536825,-7.20369 4.183578,-1.98901 6.577787,-3.6249 9.368544,-6.40123 2.920404,-2.90532 4.035049,-4.95103 4.227441,-7.75864 0.135797,-1.98167 -0.508847,-4.37192 -1.211977,-4.49385 -0.318739,-0.0553 -6.345105,3.23382 -10.77363,5.88007 -0.468466,0.27993 -0.917964,0.44276 -0.998881,0.36184 -0.08092,-0.0809 -0.308975,-1.14695 -0.506794,-2.36895 -0.500782,-3.09356 -0.951568,-4.03125 -2.431142,-5.05712 -2.284532,-1.58398 -2.749889,-2.09313 -3.679357,-4.02557 -0.817086,-1.69879 -1.049872,-1.96833 -2.033706,-2.35479 -1.8269904,-0.71766 -3.9181565,-2.09944 -3.9181565,-2.589 0,-0.50525 1.6835675,-5.30419 2.7467374,-7.82947 0.3810661,-0.90512 0.6928461,-1.69328 0.6928461,-1.75148 0,-0.25786 -5.8629446,-4.45265 -6.729283,-4.81463 -1.125257,-0.47016 -5.0892338,-0.89755 -8.4842586,-0.91475 -3.3372954,-0.0169 -5.6473014,-0.39554 -8.8635414,-1.45279 -4.443368,-1.46064 -4.679558,-1.48588 -8.567137,-0.9153 -3.063957,0.44969 -3.619518,0.61355 -4.917987,1.45049 -3.447497,2.22212 -6.191166,3.02061 -10.404676,3.02809 -1.424964,0.003 -3.497564,0.19188 -4.60578,0.42079 -3.597894,0.74316 -4.649059,1.28167 -7.260121,3.71934 -3.306998,3.08739 -5.47724,4.54271 -9.417238,6.315 -4.151484,1.86743 -4.614418,2.18865 -5.221184,3.62291 -1.396997,3.3022 -2.062353,4.54725 -3.673774,6.87463 -2.584704,3.73309 -3.19128,5.18693 -2.985505,7.15566 0.50768,4.85723 5.757881,10.19871 13.712475,13.95088 11.530669,5.43899 28.306331,8.14111 44.39926,7.15156 z m 43.478179,-32.91728 c 6.656973,-4.06969 10.588887,-7.30953 11.771286,-9.69937 0.616815,-1.24669 0.536864,-1.69951 -0.528222,-2.99164 -2.62123,-3.18 -12.982291,-9.29566 -17.538916,-10.35241 -2.10842,-0.48898 -2.527964,-0.32038 -3.794864,1.52494 -1.949987,2.8403 -6.664547,13.71907 -6.664547,15.37835 0,0.22084 0.594892,0.72531 1.32198,1.12105 1.154004,0.62809 1.435518,0.95871 2.215531,2.60201 0.755386,1.59143 1.102993,2.01271 2.248072,2.72453 0.844664,0.52507 1.650476,1.31962 2.140768,2.11085 1.299771,2.09755 1.15715,2.05388 3.134801,0.9598 0.974127,-0.53891 3.536477,-2.05906 5.694111,-3.37811 z" style="fill:currentColor;stroke-width:0.26458332" inkscape:connector-curvature="0"/>
      </g>
    </g>
  </g>
</svg>