<svg xmlns="http://www.w3.org/2000/svg" xmlns:xlink="http://www.w3.org/1999/xlink" width="150" zoomAndPan="magnify" viewBox="0 0 112.5 112.499997" height="150" preserveAspectRatio="xMidYMid meet" version="1.0"><defs><g/><clipPath id="7fd518f131"><path d="M 0 0 L 112.003906 0 L 112.003906 112.003906 L 0 112.003906 Z M 0 0 " clip-rule="nonzero"/></clipPath></defs><g clip-path="url(#7fd518f131)"><path fill="#ffffff" d="M 0 0 L 112.5 0 L 112.5 120 L 0 120 Z M 0 0 " fill-opacity="1" fill-rule="nonzero"/><path fill="#ffffff" d="M 0 0 L 112.5 0 L 112.5 112.5 L 0 112.5 Z M 0 0 " fill-opacity="1" fill-rule="nonzero"/><path fill="#171717" d="M 0 0 L 112.5 0 L 112.5 112.5 L 0 112.5 Z M 0 0 " fill-opacity="1" fill-rule="nonzero"/></g><g fill="#eab308" fill-opacity="1"><g transform="translate(11.25, 71.626679)"><g><path d="M 2.730469 -13.925781 L 2.222656 -10.273438 L 1.804688 -9.902344 L 2.265625 -6.664062 L 8.792969 -12.816406 L 2.5 -6.570312 L 2.3125 -4.671875 L 3.191406 -3.746094 L 11.429688 -12.214844 L 11.429688 -15.316406 L 11.566406 -15.453125 L 11.660156 -19.015625 L 11.660156 -19.0625 L 11.429688 -22.488281 L 11.9375 -22.996094 L 11.566406 -23.136719 L 11.753906 -23.136719 L 11.9375 -23.320312 L 15.316406 -22.996094 L 15.917969 -23.644531 L 18.785156 -23.136719 L 25.679688 -29.289062 L 19.617188 -22.625 L 22.625 -23.136719 L 31.324219 -32.4375 L 28.457031 -32.390625 L 28.132812 -32.066406 L 24.800781 -32.296875 L 20.128906 -27.902344 L 25.03125 -32.898438 L 21.238281 -32.527344 L 16.933594 -28.503906 L 21.144531 -32.804688 L 17.722656 -32.296875 L 2.175781 -17.167969 L 1.898438 -16.890625 L 2.453125 -13.789062 L 6.015625 -17.210938 Z M 5.507812 -1.851562 L 6.800781 -0.230469 L 12.679688 -5.507812 L 7.449219 0.183594 L 10.363281 -0.046875 L 17.582031 -7.03125 L 10.734375 -0.09375 L 13.925781 -0.09375 L 17.8125 -3.746094 L 14.160156 -0.09375 L 17.304688 -0.09375 L 26.652344 -8.792969 L 23.320312 -9.253906 L 22.949219 -8.882812 L 19.757812 -9.207031 L 19.527344 -8.976562 L 16.148438 -9.347656 L 15.824219 -8.976562 L 12.679688 -9.253906 Z M 2.542969 -28.039062 L 2.222656 -24.617188 L 9.855469 -31.835938 L 2.453125 -23.691406 L 2.3125 -20.914062 L 6.433594 -24.707031 L 2.730469 -21.054688 L 2.175781 -17.167969 L 16.980469 -33.082031 L 14.113281 -32.296875 L 13.648438 -31.878906 L 10.457031 -32.480469 L 10.363281 -32.390625 L 6.800781 -32.25 Z M 27.484375 -18.460938 L 28.734375 -18.507812 L 28.871094 -18.648438 L 32.34375 -18.371094 L 36.785156 -23.042969 L 36.691406 -26.1875 L 37.203125 -26.699219 L 36.785156 -27.761719 L 35.675781 -28.78125 L 28.039062 -20.265625 Z M 18 -0.046875 L 21.007812 0.046875 L 30.121094 -9.253906 L 27.113281 -9.253906 Z M 21.609375 0.371094 L 24.476562 0.09375 L 33.960938 -9.394531 L 30.632812 -9.253906 Z M 23.089844 -23.367188 L 26.28125 -23.136719 L 33.683594 -30.863281 L 32.113281 -32.480469 Z M 34.148438 -9.253906 L 25.265625 -0.371094 L 28.316406 -0.046875 L 35.304688 -7.402344 L 35.628906 -9.207031 Z M 3.609375 -4.117188 L 4.90625 -2.035156 L 12.722656 -9.71875 L 11.566406 -9.253906 L 11.519531 -11.84375 Z M 27.53125 -23.136719 L 27.578125 -20.960938 L 35.765625 -29.382812 L 34.007812 -30.539062 L 26.375 -22.949219 Z M 28.734375 0 L 31.789062 -0.140625 L 35.582031 -3.980469 L 35.488281 -6.988281 Z M 32.4375 -18.371094 L 35.953125 -18.460938 L 36.785156 -19.386719 L 36.785156 -22.71875 Z M 32.113281 -0.140625 L 35.535156 0.140625 L 35.582031 -0.183594 L 35.582031 -3.46875 Z M 36.785156 -18.507812 L 36.785156 -19.0625 L 36.230469 -18.507812 Z M 36.785156 -18.507812 "/></g></g></g><g fill="#eab308" fill-opacity="1"><g transform="translate(50.348815, 71.626679)"><g><path d="M 4.210938 -6.847656 L 3.886719 -4.210938 L 3.425781 -3.792969 L 3.65625 -0.183594 L 3.425781 0.046875 L 7.125 0.09375 L 16.054688 -8.792969 L 13.09375 -9.347656 L 3.65625 -0.183594 L 12.816406 -9.53125 L 12.816406 -12.445312 L 13.09375 -12.722656 L 12.910156 -15.777344 L 13.417969 -16.242188 L 12.816406 -19.804688 L 8.097656 -15.363281 L 13.511719 -20.777344 L 12.957031 -20.820312 L 10.273438 -20.777344 L 8.375 -19.015625 L 10.085938 -20.636719 L 6.664062 -20.914062 L 3.5625 -17.675781 L 3.5625 -14.574219 L 3.425781 -14.4375 L 3.792969 -11.335938 L 3.65625 -11.199219 L 3.5625 -7.355469 L 9.808594 -13.003906 Z M 11.476562 -0.554688 L 14.207031 0.09375 L 22.71875 -8.003906 L 15.039062 -0.046875 L 18 -0.09375 L 22.394531 -4.164062 L 18.878906 -0.648438 L 21.378906 0.140625 L 34.378906 -13.789062 L 34.5625 -15.363281 L 35.8125 -16.519531 L 34.75 -20.128906 L 25.449219 -10.320312 L 25.402344 -9.253906 L 23.96875 -9.300781 L 23.597656 -8.929688 L 20.128906 -9.300781 Z M 2.175781 -22.625 L 5.183594 -23.136719 L 5.320312 -23.273438 L 8.605469 -23.273438 L 8.652344 -23.320312 L 12.214844 -22.996094 L 21.933594 -32.898438 L 18.183594 -32.527344 L 17.769531 -32.113281 L 14.761719 -32.4375 L 8.050781 -26.1875 L 13.882812 -32.4375 L 10.964844 -32.390625 Z M 25.402344 -23.136719 L 25.402344 -21.886719 L 32.480469 -29.660156 L 31.511719 -30.863281 L 31.695312 -31 L 30.121094 -32.390625 L 29.058594 -32.390625 L 28.734375 -32.019531 L 25.402344 -32.34375 L 16.378906 -23.226562 L 19.617188 -23.226562 L 27.113281 -30.308594 L 20.21875 -22.949219 L 22.949219 -23.183594 L 26.605469 -26.46875 L 23.414062 -23.367188 Z M 25.449219 -18.046875 L 25.308594 -14.761719 L 34.007812 -22.859375 L 25.679688 -13.972656 L 25.265625 -11.011719 L 34.796875 -20.542969 L 34.75 -23.644531 L 34.703125 -23.597656 L 34.609375 -27.253906 Z M 25.957031 0.324219 L 28.734375 0.046875 L 35.027344 -6.339844 L 34.65625 -8.792969 L 34.980469 -9.070312 L 34.609375 -12.957031 L 22.117188 0.785156 L 25.125 0 L 31.464844 -5.832031 Z M 7.632812 -0.371094 L 10.640625 -0.046875 L 20.265625 -9.578125 L 16.796875 -9.253906 Z M 12.863281 -23.183594 L 15.871094 -23.089844 L 24.984375 -32.390625 L 21.980469 -32.390625 Z M 0.277344 -23.136719 L 1.480469 -23.136719 L 10.597656 -32.992188 L 7.542969 -32.390625 L 0.507812 -25.402344 Z M 33.222656 -29.289062 L 25.726562 -21.515625 L 25.449219 -18.414062 L 34.378906 -28.085938 Z M 0.09375 -28.871094 L 0.277344 -25.496094 L 7.125 -32.804688 L 3.839844 -32.527344 Z M 30.121094 0 L 34.75 -4.582031 L 34.703125 -5.644531 L 29.058594 -0.140625 Z M 0.230469 -29.195312 L 3.515625 -32.527344 L 0.417969 -32.25 Z M 3.792969 -18.183594 L 6.339844 -20.683594 L 3.703125 -20.777344 Z M 34.425781 -28.132812 L 34.703125 -27.761719 L 34.378906 -28.085938 Z M 34.425781 -28.132812 "/></g></g></g><g fill="#eab308" fill-opacity="1"><g transform="translate(87.365449, 71.626679)"><g><path d="M 1.664062 -3.238281 L 2.265625 -0.324219 L 10.132812 -8.003906 L 2.683594 -0.507812 L 5.460938 -0.140625 L 11.566406 -6.339844 L 11.429688 -9.253906 L 11.800781 -9.625 L 11.566406 -12.722656 L 11.613281 -12.769531 L 11.660156 -16.566406 L 2.867188 -7.078125 L 2.3125 -4.027344 L 6.523438 -8.003906 Z M 9.53125 -32.390625 L 9.394531 -32.25 L 6.015625 -32.4375 L 2.453125 -28.640625 L 2.128906 -25.449219 L 2.777344 -26.050781 L 1.898438 -25.21875 L 2.128906 -22.257812 L 1.851562 -21.980469 L 2.265625 -18.230469 L 11.152344 -27.625 L 11.660156 -30.769531 L 4.027344 -23.96875 L 11.011719 -31.464844 L 11.566406 -32.390625 Z M 2.035156 -14.34375 L 2.40625 -11.199219 L 11.9375 -20.453125 L 11.660156 -23.785156 Z M 1.804688 -17.398438 L 2.222656 -14.808594 L 11.429688 -23.597656 L 11.613281 -27.160156 Z M 2.265625 -10.875 L 2.3125 -7.402344 L 11.105469 -17.167969 L 11.613281 -19.988281 Z M 5.96875 0.183594 L 9.117188 -0.09375 L 11.613281 -2.40625 L 11.566406 -5.644531 Z M 2.265625 -29.105469 L 5.691406 -32.390625 L 2.3125 -32.390625 Z M 11.613281 -0.046875 L 11.566406 -2.035156 L 9.4375 0.046875 Z M 11.613281 -0.046875 "/></g></g></g></svg>
